<svg xmlns="http://www.w3.org/2000/svg" width="150" height="150" viewBox="0 0 150 150">
  <g id="Grupo_1190519" data-name="Grupo 1190519" transform="translate(-1089.676 -8398.59)">
    <rect id="Rectángulo_460221" data-name="Rectángulo 460221" width="150" height="150" transform="translate(1089.676 8398.59)" fill="#fff"/>
    <g id="Grupo_1189187" data-name="Grupo 1189187" transform="translate(1093.523 8402.78)">
      <path id="Trazado_1034768" data-name="Trazado 1034768" d="M50.145,0V4.418H55.63V6.24H48.444L48.423,0h-8.7V4.418H45.21V6.24H38.024L38,0H36.345V0H29.3V4.418h5.485V6.24H27.6L27.581,0H25.923V1.113h.519l.019,6.239h9.466V3.306H30.443V1.113h6.421l.019,6.239H46.35V3.306H40.865V1.113h6.419L47.3,7.353h9.467V3.306H51.285V1.113h5.906L57.185,0Z" transform="translate(3.515 0)" fill="#ada899"/>
      <path id="Trazado_1034769" data-name="Trazado 1034769" d="M119.359,0V4.418h5.485V6.24h-7.188L117.636,0h-8.7V4.418h5.485V6.24h-7.186L107.212,0h-8.7V4.418H104V6.24H96.815L96.793,0H88.1V4.418h5.485V6.24H86.394L86.372,0H84.716V0H77.675V4.418H83.16V6.24H75.974L75.951,0h-8.7V4.418h5.484V6.24H65.55L65.531,0h-8.7V4.418h5.485V6.24H55.132L55.11,0H53.458V1.113h.519L54,7.353h9.467V3.306H57.978V1.113h6.415l.019,6.239h9.466V3.306H68.395V1.113h6.418l.019,6.239H84.3V3.306H78.814V1.113h6.422l.019,6.239h9.466V3.306H89.235V1.113h6.419l.019,6.239h9.467V3.306H99.656V1.113h6.419l.019,6.239h9.472V3.306h-5.485V1.113h6.41l.019,6.239h9.467V3.306h-5.485V1.113H126.4V1.108h6.887V8.114h-1.868V2.767h-4.533V9.629h1.142V3.881h2.251V9.228h4.151V0Z" transform="translate(7.249 0)" fill="#ada899"/>
      <path id="Trazado_1034770" data-name="Trazado 1034770" d="M134.134,8.7v1.616l6.4.02v7h-1.868V12h-4.533v6.861h0v1.614l6.4.02v7h-1.868V22.155h-4.533v8.477l6.4.02v7h-1.868V32.312h-4.533v8.477l6.4.02v7h-1.868V42.47h-4.533v6.861h0v1.614l6.4.02v7h-1.868V52.627h-4.533V61.1l6.4.02v7h-1.868V62.784h-4.533v8.477l6.4.02v7h-1.868V72.941h-4.533v8.477l6.4.02v7h-1.868V83.1h-4.533v6.86h0v1.614l6.4.021v7h-1.868V93.256h-4.533v8.477l6.4.02v7h-1.868v-5.338h-4.533v8.477l6.4.02v7h-1.868v-5.337h-4.533v6.86h0v1.614l6.4.02v7h-1.868v-5.338h-4.533V132.2l6.4.02v7h-1.868v-5.338h-4.533v5.749H132.4l-.019-6.24h-9.466v4.048H128.4v2.193h-6.419l-.019-6.24h-9.466v4.048h5.485v2.193h-6.421l-.018-6.24H102.07v4.048h5.485v2.193h-6.419l-.019-6.24H91.65v4.048h5.483v2.193H90.714l-.018-6.24H81.228v4.048h5.486v2.193H80.294l-.019-6.24H70.808v4.048h5.484v2.193H69.872l-.019-6.24H60.387v4.048H65.87v2.193H59.451l-.018-6.24H49.966v4.048H55.45v2.193H49.031l-.019-6.24H39.545v4.048h5.484v2.193H38.611l-.02-6.24H29.125v4.048h5.484v2.193H28.19l-.019-6.24H18.7v4.048h5.485v2.193H17.768l-.019-6.24H8.283v4.048h5.484v2.193H7.543v-5.749H3.011v5.338H1.142v-7l6.4-.02v-8.477H3.011v5.338H1.142v-7l6.4-.02v-1.614h0v-6.86H3.011v5.337H1.142v-7l6.4-.02v-8.477H3.011v5.338H1.142v-7l6.4-.02V93.256H3.011v5.338H1.142v-7l6.4-.021V83.1H3.011v5.337H1.142v-7l6.4-.021V79.805h0V72.941H3.011v5.339H1.142v-7l6.4-.02V62.784H3.011v5.338H1.142v-7l6.4-.02V52.627H3.011v5.338H1.142v-7l6.4-.02V49.332h0V42.47H3.011v5.338H1.142v-7l6.4-.02V32.312H3.011V37.65H1.142v-7l6.4-.02V22.155H3.011v5.338H1.142v-7l6.4-.02V18.86h0V12H3.011v5.338H1.142v-7l6.4-.02V8.7H6.4v.506L0,9.227v9.227H4.153V13.11H6.4v6.256L0,19.385v9.226H4.153V23.266H6.4v6.257L0,29.542v9.228H4.153V33.423H6.4V39.68L0,39.7v9.227H4.153V43.582H6.4v6.256L0,49.857v9.227H4.153V53.737H6.4v6.257L0,60.013V69.24H4.153V63.9H6.4v6.256l-6.4.02V79.4H4.153V74.053H6.4V80.31L0,80.329v9.227H4.153V84.209H6.4v6.257L0,90.485v9.227H4.153V94.368H6.4v6.257l-6.4.019v9.226H4.153v-5.345H6.4v6.258L0,110.8v9.228H4.153v-5.346H6.4v6.256l-6.4.019v9.227H4.153V124.84H6.4V131.1l-6.4.019v9.226H4.153V135H6.4v5.756l1.142,0H14.9v-4.42H9.43v-1.821h7.181l.019,6.24h8.7v-4.42H19.851v-1.821h7.18l.019,6.24h8.7v-4.42H30.271v-1.821h7.181l.02,6.24h8.7v-4.42H40.692v-1.821h7.18l.019,6.24h8.7v-4.42H51.114v-1.821h7.18l.02,6.24h8.7v-4.42H61.534v-1.821h7.18l.02,6.24h8.7v-4.42H71.955v-1.821h7.18l.019,6.24h8.7v-4.42H82.375v-1.821h7.181l.02,6.24h8.7v-4.42H92.8v-1.821h7.18l.02,6.24h8.7v-4.42h-5.477v-1.821h7.18l.02,6.24h8.7v-4.42h-5.477v-1.821h7.18l.02,6.24h8.7v-4.42h-5.483v-1.821h7.186l.019,6.24h2.875l1.141,0V135h2.251v5.345h4.152v-9.226l-6.4-.019V124.84h2.251v5.344h4.152v-9.227l-6.4-.019v-6.256h2.251v5.346h4.152V110.8l-6.4-.018v-6.258h2.251v5.345h4.152v-9.226l-6.4-.019V94.368h2.251v5.344h4.152V90.485l-6.4-.019V84.21h2.251v5.346h4.152V80.33l-6.4-.019V74.053h2.251V79.4h4.152V70.172l-6.4-.02V63.9h2.251V69.24h4.152V60.013l-6.4-.019V53.737h2.251v5.346h4.152V49.857l-6.4-.019V43.582h2.251v5.344h4.152V39.7l-6.4-.019V33.423h2.251v5.346h4.152V29.542l-6.4-.019V23.266h2.251v5.345h4.152V19.385l-6.4-.019V13.11h2.251v5.344h4.152V9.227l-6.4-.019V8.7Z" transform="translate(0 0.93)" fill="#ada899"/>
      <path id="Trazado_1034771" data-name="Trazado 1034771" d="M22.4,0V4.418h5.485V6.24H20.694L20.675,0H19.018V0H11.977V4.418H17.46V6.24H10.274L10.253,0H0V9.228H4.152V3.881H6.4V9.629H7.543V2.767H3.011V8.114H1.143V1.108H8.6v.006h.52l.019,6.239H18.6V3.306H13.116V1.113h6.422l.018,6.239h9.467V3.306H23.533V1.113h5.9V0Z" transform="translate(0 0)" fill="#ada899"/>
    </g>
    <g id="Grupo_1189188" data-name="Grupo 1189188" transform="translate(1117.761 8425.813)">
      <g id="Grupo_1188569" data-name="Grupo 1188569" transform="translate(0 0)">
        <g id="Grupo_1099776" data-name="Grupo 1099776" transform="translate(0)">
          <g id="Grupo_1099618" data-name="Grupo 1099618">
            <rect id="Rectángulo_401104" data-name="Rectángulo 401104" width="93.86" height="94.99" fill="none"/>
          </g>
          <g id="actualizando_2_" data-name="actualizando (2)" transform="translate(3.914 6.641)">
            <g id="Page-1_10_" transform="translate(0 0.01)">
              <g id="_x30_11---Computer-Updating">
                <path id="Shape_27_" d="M83.848.01H5.362A4.506,4.506,0,0,0,1,4.635V68.057a4.506,4.506,0,0,0,4.36,4.625H30.626L27.719,78.5H22.8a4.36,4.36,0,1,0,0,8.721h43.6a4.36,4.36,0,0,0,0-8.721H61.491l-2.907-5.814H83.848a4.506,4.506,0,0,0,4.36-4.625V4.635A4.506,4.506,0,0,0,83.848.01ZM5.362,2.917H83.848A1.623,1.623,0,0,1,85.3,4.635v56.42H3.909V4.635A1.624,1.624,0,0,1,5.362,2.917Zm62.5,79.939a1.453,1.453,0,0,1-1.453,1.453H22.8a1.453,1.453,0,1,1,0-2.907h43.6A1.453,1.453,0,0,1,67.86,82.856ZM58.241,78.5H30.969l2.907-5.814H55.334Zm25.607-8.721H5.362a1.624,1.624,0,0,1-1.453-1.718v-4.1H85.3v4.1a1.624,1.624,0,0,1-1.454,1.718Z" transform="translate(-1 -0.01)"/>
                <path id="Shape_26_" d="M214.481,111.317a8.721,8.721,0,1,0-8.731-8.721,8.721,8.721,0,0,0,8.731,8.721Zm0-14.534a5.814,5.814,0,1,1-5.824,5.814A5.814,5.814,0,0,1,214.481,96.783Z" transform="translate(-170.876 -77.888)"/>
                <path id="Shape_25_" d="M156.946,55.553a2.907,2.907,0,0,0-2.337,2.85v3.43a2.907,2.907,0,0,0,2.336,2.85l1.394.279a14.479,14.479,0,0,0,.589,1.427l-.786,1.18a2.918,2.918,0,0,0,.363,3.668l2.427,2.426a2.92,2.92,0,0,0,3.667.363l1.19-.794a14.713,14.713,0,0,0,1.414.581l.282,1.407a2.907,2.907,0,0,0,2.85,2.337h3.43a2.907,2.907,0,0,0,2.85-2.336l.282-1.408a14.757,14.757,0,0,0,1.414-.581l1.19.794a2.918,2.918,0,0,0,3.668-.363l2.426-2.427a2.917,2.917,0,0,0,.363-3.667l-.786-1.18a14.468,14.468,0,0,0,.581-1.427l1.392-.279a2.907,2.907,0,0,0,2.344-2.85V58.4a2.907,2.907,0,0,0-2.336-2.85l-1.392-.279a14.5,14.5,0,0,0-.592-1.427l.788-1.18A2.918,2.918,0,0,0,185.6,49l-2.427-2.426a2.916,2.916,0,0,0-3.667-.363l-1.19.794a14.711,14.711,0,0,0-1.414-.581l-.282-1.407a2.907,2.907,0,0,0-2.85-2.337h-3.43a2.907,2.907,0,0,0-2.85,2.336l-.282,1.408a14.757,14.757,0,0,0-1.414.581l-1.19-.794a2.917,2.917,0,0,0-3.668.363L158.5,49a2.917,2.917,0,0,0-.363,3.667l.788,1.18a14.5,14.5,0,0,0-.592,1.427Zm2.8,2.4a1.454,1.454,0,0,0,1.112-1.026,11.585,11.585,0,0,1,1.017-2.471,1.454,1.454,0,0,0-.06-1.517l-1.262-1.889,2.427-2.426,1.9,1.267a1.445,1.445,0,0,0,1.512.061,11.577,11.577,0,0,1,2.459-1.01,1.454,1.454,0,0,0,1.028-1.113l.455-2.248h3.43l.451,2.248a1.454,1.454,0,0,0,1.028,1.113,11.552,11.552,0,0,1,2.459,1.01,1.445,1.445,0,0,0,1.512-.061l1.9-1.267,2.426,2.426-1.262,1.889a1.453,1.453,0,0,0-.055,1.52,11.576,11.576,0,0,1,1.017,2.471,1.454,1.454,0,0,0,1.112,1.026l2.231.443v3.43l-2.232.446a1.454,1.454,0,0,0-1.112,1.026,11.434,11.434,0,0,1-1.017,2.471,1.454,1.454,0,0,0,.06,1.517l1.262,1.889-2.427,2.426-1.9-1.267a1.453,1.453,0,0,0-1.512-.061,11.65,11.65,0,0,1-2.459,1.017,1.453,1.453,0,0,0-1.028,1.112l-.453,2.243h-3.43l-.451-2.248a1.453,1.453,0,0,0-1.028-1.112,11.648,11.648,0,0,1-2.459-1.017,1.453,1.453,0,0,0-1.512.061l-1.9,1.267-2.426-2.427,1.262-1.889a1.453,1.453,0,0,0,.055-1.513,11.421,11.421,0,0,1-1.017-2.471,1.454,1.454,0,0,0-1.112-1.026l-2.231-.443V58.4Z" transform="translate(-128.446 -35.41)"/>
                <path id="Shape_24_" d="M48.036,290.331h63.951a4.36,4.36,0,1,0,0-8.721H48.036a4.36,4.36,0,0,0,0,8.721Zm65.4-4.36a1.453,1.453,0,0,1-1.453,1.453H93.093v-2.907h18.895A1.453,1.453,0,0,1,113.441,285.97Zm-65.4-1.454h42.15v2.907H48.036a1.453,1.453,0,0,1,0-2.907Z" transform="translate(-36.407 -233.647)"/>
                <g id="Grupo_1190740" data-name="Grupo 1190740" transform="translate(14.554 5.813)">
                  <path id="Path_14_" d="M357.891,124.9l.4-.4a23.027,23.027,0,0,1-6.774,15.78,1.454,1.454,0,1,0,2.055,2.058,25.925,25.925,0,0,0,7.629-17.889l.453.453a1.453,1.453,0,0,0,2.055-2.055l-2.907-2.907a1.454,1.454,0,0,0-2.055,0l-2.907,2.907a1.453,1.453,0,0,0,2.055,2.055V124.9Z" transform="translate(-306.011 -104.979)" fill-rule="evenodd"/>
                  <path id="Path_13_" d="M89.764,56.968a1.453,1.453,0,0,0,2.055,0l2.907-2.907a1.453,1.453,0,0,0-2.055-2.055l-.4.4a23.027,23.027,0,0,1,6.774-15.78,1.454,1.454,0,0,0-2.055-2.058,25.926,25.926,0,0,0-7.629,17.9l-.453-.453a1.453,1.453,0,0,0-2.055,2.055Z" transform="translate(-86.449 -34.138)" fill-rule="evenodd"/>
                </g>
              </g>
            </g>
          </g>
        </g>
      </g>
    </g>
  </g>
</svg>
