<svg xmlns="http://www.w3.org/2000/svg" xmlns:xlink="http://www.w3.org/1999/xlink" width="96" height="96" viewBox="0 0 96 96">
  <defs>
    <clipPath id="clip-path">
      <path id="path3483" d="M0-682.665H61.075v61.075H0Z" transform="translate(0 682.665)" fill="#fff"/>
    </clipPath>
  </defs>
  <g id="Grupo_1190648" data-name="Grupo 1190648" transform="translate(-1089.746 -9085.238)">
    <rect id="Rectángulo_460222" data-name="Rectángulo 460222" width="96" height="96" transform="translate(1089.746 9085.238)" fill="#5b543e"/>
    <g id="Grupo_1189189" data-name="Grupo 1189189" transform="translate(1092.182 9087.436)">
      <path id="Trazado_1034768" data-name="Trazado 1034768" d="M41.543,0V2.849H45.08V4.024H40.446L40.433,0h-5.61V2.849h3.537V4.024H33.726L33.712,0H32.644V0H28.1V2.849H31.64V4.024H27.007L26.992,0H25.923V.718h.335l.012,4.024h6.1V2.132H28.838V.718h4.141l.012,4.024h6.1V2.132H35.559V.718H39.7l.012,4.024h6.105V2.132H42.278V.718h3.809l0-.718Z" transform="translate(-6.939 0)" fill="#c9b89e"/>
      <path id="Trazado_1034769" data-name="Trazado 1034769" d="M95.956,0V2.849h3.537V4.024H94.858L94.846,0h-5.61V2.849h3.537V4.024H88.139L88.124,0H82.515V2.849h3.538V4.024H81.418L81.4,0H75.8V2.849h3.537V4.024H74.7L74.684,0H73.616V0h-4.54V2.849h3.537V4.024H67.978L67.963,0H62.354V2.849h3.536V4.024H61.256L61.244,0H55.635V2.849h3.537V4.024H54.538L54.524,0H53.458V.718h.335L53.8,4.741H59.91V2.132H56.373V.718H60.51l.012,4.024h6.1V2.132H63.09V.718H67.23l.012,4.024h6.1V2.132H69.81V.718h4.141l.012,4.024h6.1V2.132H76.53V.718h4.14l.012,4.024h6.105V2.132H83.251V.718h4.14L87.4,4.741h6.108V2.132H89.974V.718h4.134l.012,4.024h6.105V2.132H96.689V.718H100.5v0h4.442V5.233h-1.2V1.784H100.81V6.21h.737V2.5H103V5.951h2.677V0Z" transform="translate(-14.309 0)" fill="#c9b89e"/>
      <path id="Trazado_1034770" data-name="Trazado 1034770" d="M86.5,8.7V9.745l4.128.013V14.27h-1.2V10.828H86.5v4.425h0v1.041l4.128.013v4.514h-1.2V17.378H86.5v5.467l4.128.013v4.513h-1.2V23.928H86.5v5.467l4.128.013v4.513h-1.2V30.479H86.5V34.9h0v1.041l4.128.013v4.514h-1.2V37.029H86.5V42.5l4.128.013v4.513h-1.2V43.579H86.5v5.467l4.128.013v4.514h-1.2V50.129H86.5V55.6l4.128.013v4.514h-1.2V56.681H86.5V61.1h0v1.041l4.128.014v4.513h-1.2V63.23H86.5V68.7l4.128.013v4.514h-1.2V69.781H86.5v5.467l4.128.013v4.513h-1.2V76.331H86.5v4.424h0V81.8l4.128.013v4.513h-1.2V82.881H86.5v5.467l4.128.013v4.514h-1.2V89.432H86.5v3.707h-1.12l-.012-4.024h-6.1v2.61H82.8v1.414h-4.14l-.012-4.024h-6.1v2.61h3.537v1.414H71.94l-.012-4.024H65.823v2.61H69.36v1.414h-4.14l-.012-4.024H59.1v2.61h3.536v1.414H58.5l-.012-4.024H52.383v2.61h3.538v1.414H51.78l-.012-4.024h-6.1v2.61H49.2v1.414H45.06l-.012-4.024h-6.1v2.61h3.536v1.414H38.339l-.012-4.024H32.222v2.61h3.537v1.414h-4.14l-.012-4.024H25.5v2.61h3.536v1.414H24.9l-.013-4.024h-6.1v2.61h3.536v1.414h-4.14l-.012-4.024h-6.1v2.61H15.6v1.414H11.458l-.012-4.024h-6.1v2.61H8.878v1.414H4.865V89.432H1.942v3.443H.736V88.36l4.128-.013V82.881H1.942v3.443H.736V81.81L4.865,81.8V80.756h0V76.331H1.942v3.442H.736V75.261l4.128-.013V69.781H1.942v3.443H.736V68.71L4.865,68.7V63.23H1.942v3.443H.736V62.16l4.128-.014V56.68H1.942v3.442H.736V55.609L4.865,55.6v-1.04h0V50.129H1.942v3.443H.736V49.059l4.128-.013V43.579H1.942v3.443H.736V42.509L4.865,42.5V37.029H1.942v3.443H.736V35.958l4.128-.013V34.9h0V30.479H1.942v3.443H.736V29.408l4.128-.013V23.928H1.942v3.443H.736V22.858l4.128-.013V17.378H1.942v3.443H.736V16.307l4.128-.013V15.253h0V10.828H1.942V14.27H.736V9.758l4.128-.013V8.7H4.128v.326L0,9.041v5.95H2.678V11.545h1.45v4.034L0,15.592v5.95H2.678V18.094h1.45v4.035L0,22.141v5.951H2.678V24.645h1.45V28.68L0,28.692v5.95H2.678V31.2h1.45V35.23L0,35.242v5.95H2.678V37.745h1.45V41.78L0,41.792v5.95H2.678V44.3h1.45v4.034L0,48.343v5.95H2.678V50.846h1.45v4.035L0,54.893v5.95H2.678V57.4h1.45v4.035L0,61.443v5.95H2.678V63.947h1.45v4.035L0,67.994v5.95H2.678V70.5h1.45v4.036L0,74.544V80.5H2.678V77.047h1.45v4.034L0,81.094v5.95H2.678V83.6h1.45v4.035L0,87.645v5.95H2.678V90.148h1.45v3.712l.737,0H9.611v-2.85H6.081V89.833h4.631l.012,4.024h5.609v-2.85H12.8V89.833h4.63l.012,4.024h5.609v-2.85H19.521V89.833h4.631l.013,4.024h5.608v-2.85H26.242V89.833h4.63l.012,4.024h5.61v-2.85H32.962V89.833h4.63l.013,4.024h5.608v-2.85H39.682V89.833h4.63l.013,4.024h5.609v-2.85H46.4V89.833h4.63l.012,4.024h5.609v-2.85H53.123V89.833h4.631l.013,4.024h5.608v-2.85H59.843V89.833h4.63l.013,4.024H70.1v-2.85H66.564V89.833h4.631l.013,4.024h5.608v-2.85H73.283V89.833h4.63l.013,4.024h5.609v-2.85H80V89.833h4.634l.012,4.024H86.5l.736,0V90.148h1.451v3.447h2.677v-5.95l-4.129-.012V83.6h1.451v3.446h2.677v-5.95l-4.129-.012V77.047h1.451V80.5h2.677V74.544l-4.129-.011V70.5h1.451v3.447h2.677v-5.95l-4.129-.012V63.947h1.451v3.446h2.677v-5.95l-4.129-.012V57.4h1.451v3.448h2.677v-5.95l-4.129-.012V50.846h1.451v3.447h2.677v-5.95l-4.129-.013V44.3h1.451v3.446h2.677v-5.95l-4.129-.012V37.745h1.451v3.448h2.677v-5.95l-4.129-.012V31.2h1.451v3.446h2.677v-5.95l-4.129-.012V24.645h1.451v3.448h2.677V22.141l-4.129-.012V18.094h1.451v3.447h2.677v-5.95l-4.129-.012V11.545h1.451v3.446h2.677V9.041l-4.129-.012V8.7Z" transform="translate(0 -2.491)" fill="#c9b89e"/>
      <path id="Trazado_1034771" data-name="Trazado 1034771" d="M14.444,0V2.849h3.537V4.024H13.346L13.333,0H12.265V0H7.724V2.849H11.26V4.024H6.626L6.612,0H0V5.951H2.678V2.5H4.129V6.21h.736V1.784H1.942V5.233H.737V.714H5.544v0h.335l.012,4.024H12V2.132H8.458V.718H12.6l.012,4.024h6.105V2.132h-3.54V.718h3.807V0Z" transform="translate(0 0)" fill="#c9b89e"/>
    </g>
    <g id="Grupo_1189190" data-name="Grupo 1189190" transform="translate(1107.813 9102.288)">
      <g id="Grupo_1188569" data-name="Grupo 1188569" transform="translate(0 0)">
        <g id="Grupo_1099776" data-name="Grupo 1099776" transform="translate(0)">
          <g id="Grupo_1099618" data-name="Grupo 1099618">
            <rect id="Rectángulo_401104" data-name="Rectángulo 401104" width="60.529" height="61.258" fill="none"/>
          </g>
          <g id="g3477" transform="translate(-1.853 682.326)">
            <g id="g3479" transform="translate(0 -682.665)">
              <g id="g3481" clip-path="url(#clip-path)">
                <g id="g3487" transform="translate(22.654 0)">
                  <path id="path3489" d="M-231.6-58.523h-23.349a3.559,3.559,0,0,1-3.555-3.555V-64.7a1.193,1.193,0,0,1,1.193-1.193h4.946v-.821a4.349,4.349,0,0,1,4.344-4.344h9.494a4.349,4.349,0,0,1,4.344,4.344v.821h4.946a1.193,1.193,0,0,1,1.193,1.193v2.622A3.559,3.559,0,0,1-231.6-58.523Zm-24.519-4.984v1.429a1.171,1.171,0,0,0,1.169,1.169H-231.6a1.171,1.171,0,0,0,1.169-1.169v-1.429h-4.946a1.193,1.193,0,0,1-1.193-1.193v-2.013a1.96,1.96,0,0,0-1.958-1.958h-9.494a1.96,1.96,0,0,0-1.958,1.958V-64.7a1.193,1.193,0,0,1-1.193,1.193Z" transform="translate(258.509 71.057)" fill="#fff"/>
                </g>
                <g id="g3491" transform="translate(15.465 31.539)">
                  <path id="path3493" d="M-12.926-12.332a1.125,1.125,0,0,1-.954-.518l-.011-.018h0L-13.974-13a1.208,1.208,0,0,1,.392-1.645,1.178,1.178,0,0,1,1.624.369l.03.049h0l.047.079h0a1.228,1.228,0,0,1-.388,1.625A1.24,1.24,0,0,1-12.926-12.332Z" transform="translate(14.145 14.826)" fill="#fff"/>
                </g>
                <g id="g3495" transform="translate(15.283 5.166)">
                  <path id="path3497" d="M-449.613-456.47h-39.37a2.918,2.918,0,0,1-2.915-2.915v-14.967a1.193,1.193,0,0,1,.349-.843l.316-.316-.292-.292a1.193,1.193,0,0,1-.349-.844,1.193,1.193,0,0,1,.349-.844l4.18-4.18a1.193,1.193,0,0,1,1.437-.191,9.851,9.851,0,0,0,11.842-1.583,9.77,9.77,0,0,0,2.88-6.954,9.769,9.769,0,0,0-2.88-6.954,9.771,9.771,0,0,0-6.955-2.881,9.768,9.768,0,0,0-6.954,2.881,9.8,9.8,0,0,0-1.682,2.244,1.193,1.193,0,0,1-1.342.586,1.193,1.193,0,0,1-.9-1.156v-13.783a2.919,2.919,0,0,1,2.915-2.915h5.649a1.193,1.193,0,0,1,1.193,1.193v2.622a1.17,1.17,0,0,0,1.169,1.169h23.348a1.17,1.17,0,0,0,1.169-1.169v-2.622a1.193,1.193,0,0,1,1.193-1.193h5.649a2.9,2.9,0,0,1,2.061.853,2.9,2.9,0,0,1,.854,2.062v32.439a1.193,1.193,0,0,1-1.193,1.193,1.193,1.193,0,0,1-1.193-1.193v-32.439a.527.527,0,0,0-.155-.374.527.527,0,0,0-.374-.155h-4.456v1.429a3.559,3.559,0,0,1-3.555,3.555h-23.348a3.559,3.559,0,0,1-3.555-3.555v-1.429h-4.456a.53.53,0,0,0-.53.529v10.275a12.135,12.135,0,0,1,8.491-3.432,12.141,12.141,0,0,1,8.642,3.58A12.14,12.14,0,0,1-468.8-490.4a12.14,12.14,0,0,1-3.579,8.641,12.235,12.235,0,0,1-8.657,3.577,12.168,12.168,0,0,1-5.241-1.183L-489-476.647l.292.292a1.193,1.193,0,0,1,0,1.687l-.81.81v14.473a.53.53,0,0,0,.53.53h39.37a.53.53,0,0,0,.53-.53v-7.153a1.193,1.193,0,0,1,1.193-1.193,1.193,1.193,0,0,1,1.193,1.193v7.153A2.918,2.918,0,0,1-449.613-456.47Z" transform="translate(491.899 512.379)" fill="#fff"/>
                </g>
                <g id="g3499" transform="translate(35.721 6.267)">
                  <path id="path3501" fill="#fff"/>
                </g>
                <g id="g3503" transform="translate(22.789 42.079)">
                  <path id="path3505" d="M-118.477-80.675a6.385,6.385,0,0,1-6.377-6.377,6.385,6.385,0,0,1,6.377-6.378,1.193,1.193,0,0,1,1.193,1.193,1.193,1.193,0,0,1-1.193,1.193,4,4,0,0,0-3.992,3.992,4,4,0,0,0,3.992,3.992,3.982,3.982,0,0,0,3.69-2.467,1.193,1.193,0,0,1,1.558-.646,1.193,1.193,0,0,1,.646,1.558A6.361,6.361,0,0,1-118.477-80.675Z" transform="translate(124.854 93.43)" fill="#fff"/>
                </g>
                <g id="g3507" transform="translate(40.307 22.777)">
                  <path id="path3509" d="M-2.34-10.948h-9.8a1.193,1.193,0,0,1-1.193-1.193,1.193,1.193,0,0,1,1.193-1.193h9.8A1.193,1.193,0,0,1-1.147-12.14,1.193,1.193,0,0,1-2.34-10.948Z" transform="translate(13.333 13.333)" fill="#fff"/>
                </g>
                <g id="g3511" transform="translate(40.307 28.437)">
                  <path id="path3513" d="M-6.051-10.948H-12.14a1.193,1.193,0,0,1-1.193-1.193,1.193,1.193,0,0,1,1.193-1.193h6.089A1.193,1.193,0,0,1-4.858-12.14,1.193,1.193,0,0,1-6.051-10.948Z" transform="translate(13.333 13.333)" fill="#fff"/>
                </g>
                <g id="g3515" transform="translate(39.489 44.317)">
                  <path id="path3517" d="M-1.522-10.948H-12.14a1.193,1.193,0,0,1-1.193-1.193,1.193,1.193,0,0,1,1.193-1.193H-1.522A1.193,1.193,0,0,1-.329-12.14,1.193,1.193,0,0,1-1.522-10.948Z" transform="translate(13.333 13.333)" fill="#fff"/>
                </g>
                <g id="g3519" transform="translate(39.489 49.976)">
                  <path id="path3521" d="M-5.233-10.948H-12.14a1.193,1.193,0,0,1-1.193-1.193,1.193,1.193,0,0,1,1.193-1.193h6.907A1.193,1.193,0,0,1-4.04-12.14,1.193,1.193,0,0,1-5.233-10.948Z" transform="translate(13.333 13.333)" fill="#fff"/>
                </g>
                <g id="g3523" transform="translate(26.798 43.698)">
                  <path id="path3525" d="M-10.512-36.923a1.189,1.189,0,0,1-.843-.349L-12.984-38.9a1.193,1.193,0,0,1,0-1.687,1.193,1.193,0,0,1,1.687,0l.785.785,3.5-3.5a1.193,1.193,0,0,1,1.687,0,1.193,1.193,0,0,1,0,1.687l-4.34,4.34A1.189,1.189,0,0,1-10.512-36.923Z" transform="translate(13.333 43.649)" fill="#fff"/>
                </g>
                <g id="g3527" transform="translate(59.293 45.782)">
                  <path id="path3529" fill="#fff"/>
                </g>
                <g id="g3531" transform="translate(0.591 34.578)">
                  <path id="path3533" d="M-179.718-83.317a1.189,1.189,0,0,1,.843.349l6.262,6.261a1.193,1.193,0,0,1,.349.843,1.193,1.193,0,0,1-.349.844l-8.294,8.294a5.584,5.584,0,0,1-3.975,1.646,5.584,5.584,0,0,1-3.975-1.646,5.627,5.627,0,0,1,0-7.949l8.293-8.294A1.189,1.189,0,0,1-179.718-83.317Zm4.575,7.454-4.575-4.574-7.45,7.45a3.214,3.214,0,0,0-.948,2.288,3.214,3.214,0,0,0,.948,2.288,3.214,3.214,0,0,0,2.288.948,3.214,3.214,0,0,0,2.288-.948Z" transform="translate(190.498 83.317)" fill="#fff"/>
                </g>
                <g id="g3535" transform="translate(11.289 31.527)">
                  <path id="path3537" d="M-54.486-13.333a1.193,1.193,0,0,1,.152.01,1.193,1.193,0,0,1,.877.58,9.854,9.854,0,0,0,1.534,1.981,9.874,9.874,0,0,0,2.067,1.584,1.193,1.193,0,0,1,.589.877,1.193,1.193,0,0,1-.339,1L-53.787-3.12a1.193,1.193,0,0,1-.843.349,1.193,1.193,0,0,1-.843-.349L-59.49-7.136a1.193,1.193,0,0,1,0-1.687l4.161-4.161A1.193,1.193,0,0,1-54.486-13.333Zm2.162,5.377A12.319,12.319,0,0,1-53.61-9.076a12.348,12.348,0,0,1-1.054-1.2l-2.3,2.3,2.33,2.33Z" transform="translate(59.84 13.333)" fill="#fff"/>
                </g>
                <g id="g3539" transform="translate(13.939 14.924)">
                  <path id="path3541" d="M-37.216-49.437a12.14,12.14,0,0,1,8.641,3.579,12.234,12.234,0,0,1,0,17.283A12.14,12.14,0,0,1-37.216-25a12.14,12.14,0,0,1-8.641-3.579,12.14,12.14,0,0,1-3.579-8.641,12.141,12.141,0,0,1,3.579-8.641A12.141,12.141,0,0,1-37.216-49.437Zm0,22.056a9.77,9.77,0,0,0,6.954-2.881,9.846,9.846,0,0,0,0-13.909,9.77,9.77,0,0,0-6.954-2.881,9.77,9.77,0,0,0-6.954,2.881,9.771,9.771,0,0,0-2.881,6.954,9.77,9.77,0,0,0,2.881,6.954A9.77,9.77,0,0,0-37.216-27.382Z" transform="translate(49.437 49.437)" fill="#fff"/>
                </g>
                <g id="g3543" transform="translate(20.376 23.232)">
                  <path id="path3545" d="M-9.084-40.357a1.189,1.189,0,0,1-.843-.349l-3.057-3.057a1.193,1.193,0,0,1,0-1.687,1.193,1.193,0,0,1,1.687,0l2.213,2.213,5.4-5.4a1.193,1.193,0,0,1,1.687,0,1.193,1.193,0,0,1,0,1.687L-8.24-40.706A1.189,1.189,0,0,1-9.084-40.357Z" transform="translate(13.333 48.989)" fill="#fff"/>
                </g>
              </g>
            </g>
          </g>
        </g>
      </g>
    </g>
  </g>
</svg>
