<svg xmlns="http://www.w3.org/2000/svg" width="130" height="130" viewBox="0 0 130 130">
  <g id="Grupo_1190598" data-name="Grupo 1190598" transform="translate(-1089.676 -8398.59)">
    <rect id="Rectángulo_460221" data-name="Rectángulo 460221" width="130" height="130" transform="translate(1089.676 8398.59)" fill="#f4f1e9"/>
    <g id="Grupo_1189187" data-name="Grupo 1189187" transform="translate(1093.017 8402.229)">
      <path id="Trazado_1034768" data-name="Trazado 1034768" d="M46.955,0V3.836h4.763V5.418h-6.24L45.46,0H37.907V3.836H42.67V5.418H36.43L36.411,0H34.973V0H28.858V3.836h4.763V5.418H27.382L27.362,0h-1.44V.967h.451l.017,5.418h8.22V2.87H29.848V.967h5.575l.017,5.418h8.22V2.87H38.9V.967h5.574l.017,5.418h8.221V2.87H47.945V.967h5.128l0-.967Z" transform="translate(-0.362 0)" fill="#ada899"/>
      <path id="Trazado_1034769" data-name="Trazado 1034769" d="M110.68,0V3.836h4.763V5.418H109.2L109.184,0h-7.553V3.836h4.763V5.418h-6.24L100.133,0H92.581V3.836h4.764V5.418h-6.24L91.086,0H83.534V3.836H88.3V5.418H82.056L82.037,0H80.6V0H74.485V3.836h4.763V5.418h-6.24L72.989,0H65.437V3.836H70.2V5.418H63.957L63.941,0H56.389V3.836h4.763V5.418h-6.24L54.893,0H53.458V.967h.451l.016,5.418h8.221V2.87H57.383V.967h5.57l.017,5.418h8.22V2.87H66.428V.967H72l.017,5.418h8.22V2.87H75.474V.967H81.05l.017,5.418h8.22V2.87H84.523V.967H90.1l.017,5.418h8.221V2.87H93.572V.967h5.574l.017,5.418h8.225V2.87h-4.763V.967h5.566l.017,5.418h8.221V2.87h-4.763V.967h5.127v0h5.98V7.045h-1.622V2.4h-3.936V8.361h.992V3.37h1.954V8.012h3.6V0Z" transform="translate(-0.746 0)" fill="#ada899"/>
      <path id="Trazado_1034770" data-name="Trazado 1034770" d="M116.469,8.7v1.4l5.558.017V16.2h-1.622V11.564h-3.936v5.958h0v1.4l5.558.017v6.078h-1.622V20.384h-3.936v7.361l5.558.017v6.076h-1.622V29.2h-3.936v7.361l5.558.017v6.077h-1.622V38.023h-3.936V43.98h0v1.4l5.558.017v6.078h-1.622V46.843h-3.936V54.2l5.558.017V60.3h-1.622V55.662h-3.936v7.361l5.558.017v6.078h-1.622V64.481h-3.936v7.361l5.558.017v6.078h-1.622V73.3h-3.936v5.957h0v1.4l5.558.018v6.076h-1.622V82.12h-3.936v7.361l5.558.017v6.078h-1.622V90.941h-3.936V98.3l5.558.017V104.4h-1.622V99.761h-3.936v5.957h0v1.4l5.558.017v6.077h-1.622v-4.635h-3.936v7.361l5.558.017v6.078h-1.622V117.4h-3.936v4.992h-1.508l-.017-5.419h-8.22v3.515h4.762v1.9h-5.574l-.017-5.419h-8.22v3.515h4.763v1.9H96.864l-.016-5.419H88.628v3.515H93.39v1.9H87.816l-.017-5.419H79.58v3.515H84.34v1.9H78.767l-.016-5.419H70.531v3.515h4.764v1.9H69.719l-.017-5.419h-8.22v3.515h4.762v1.9H60.67l-.017-5.419h-8.22v3.515h4.761v1.9H51.622l-.016-5.419H43.385v3.515h4.763v1.9H42.574l-.017-5.419h-8.22v3.515H39.1v1.9H33.526l-.018-5.419H25.29v3.515h4.762v1.9H24.477l-.017-5.419h-8.22v3.515H21v1.9H15.428l-.017-5.419H7.192v3.515h4.762v1.9H6.55V117.4H2.615v4.635H.992v-6.078l5.558-.017v-7.361H2.615v4.635H.992v-6.077l5.558-.017v-1.4h0V99.761H2.615V104.4H.992V98.319L6.55,98.3V90.941H2.615v4.635H.992V89.5l5.558-.017V82.12H2.615v4.635H.992V80.68l5.558-.018V73.3H2.615v4.634H.992V71.86l5.558-.018v-1.4h0V64.481H2.615v4.636H.992V63.04l5.558-.017V55.662H2.615V60.3H.992V54.221L6.55,54.2V46.843H2.615v4.635H.992V45.4l5.558-.017v-1.4h0V38.023H2.615v4.635H.992V36.581l5.558-.017V29.2H2.615v4.635H.992V27.762l5.558-.017V20.384H2.615v4.635H.992V18.941l5.558-.017v-1.4h0V11.564H2.615V16.2H.992V10.123l5.558-.017V8.7H5.558v.439L0,9.158V17.17H3.606V12.53H5.558v5.432L0,17.978v8.011H3.606V21.348H5.558v5.433L0,26.8V34.81H3.606V30.168H5.558V35.6L0,35.617v8.012H3.606v-4.64H5.558v5.432L0,44.437v8.012H3.606V47.807H5.558V53.24L0,53.256v8.012H3.606v-4.64H5.558v5.432L0,62.077v8.011H3.606V65.446H5.558v5.433L0,70.9v8.012H3.606V74.265H5.558V79.7L0,79.715v8.012H3.606v-4.64H5.558v5.433L0,88.536v8.011H3.606V91.905H5.558v5.434L0,97.355v8.013H3.606v-4.642H5.558v5.432L0,106.174v8.012H3.606v-4.64H5.558v5.433L0,114.994v8.011H3.606v-4.641H5.558v5l.992,0h6.391v-3.838H8.188V117.94h6.236l.017,5.419h7.552v-3.838H17.237V117.94h6.235l.017,5.419H31.04v-3.838H26.284V117.94H32.52l.018,5.419h7.551v-3.838H35.333V117.94h6.235l.017,5.419h7.553v-3.838H44.382V117.94h6.235l.018,5.419h7.551v-3.838H53.43V117.94h6.235l.018,5.419h7.552v-3.838H62.479V117.94h6.235l.017,5.419h7.552v-3.838H71.527V117.94h6.236l.018,5.419h7.551v-3.838H80.576V117.94H86.81l.018,5.419H94.38v-3.838H89.624V117.94h6.235l.018,5.419h7.551v-3.838H98.672V117.94h6.235l.018,5.419h7.552v-3.838h-4.761V117.94h6.24l.017,5.419h2.5l.991,0v-5h1.954v4.641h3.6v-8.011l-5.559-.016v-5.433h1.954v4.64h3.6v-8.012l-5.559-.016v-5.432h1.954v4.642h3.6V97.355l-5.559-.015V91.905h1.954v4.641h3.6V88.536l-5.559-.016V83.086h1.954v4.64h3.6V79.715L117.46,79.7V74.266h1.954v4.642h3.6V70.9l-5.559-.016V65.446h1.954v4.641h3.6V62.077l-5.559-.017V56.627h1.954v4.64h3.6V53.256l-5.559-.016V47.807h1.954v4.642h3.6V44.437l-5.559-.016V38.989h1.954v4.64h3.6V35.617L117.46,35.6V30.168h1.954V34.81h3.6V26.8l-5.559-.016V21.348h1.954v4.641h3.6V17.978l-5.559-.016V12.53h1.954v4.64h3.6V9.158l-5.559-.016V8.7Z" transform="translate(0 -0.338)" fill="#ada899"/>
      <path id="Trazado_1034771" data-name="Trazado 1034771" d="M19.447,0V3.836H24.21V5.418H17.969L17.952,0H16.514V0H10.4V3.836h4.762V5.418H8.921L8.9,0H0V8.012h3.6V3.37H5.559V8.361H6.55V2.4H2.615V7.045H.993V.962H7.464v0h.452l.017,5.418h8.219V2.87H11.388V.967h5.576l.016,5.418H25.2V2.87H20.434V.967h5.126V0Z" transform="translate(0 0)" fill="#ada899"/>
    </g>
    <g id="Grupo_1189188" data-name="Grupo 1189188" transform="translate(1114.063 8422.228)">
      <g id="Grupo_1188569" data-name="Grupo 1188569" transform="translate(0 0)">
        <g id="Grupo_1099776" data-name="Grupo 1099776" transform="translate(0)">
          <g id="Grupo_1099618" data-name="Grupo 1099618">
            <rect id="Rectángulo_401104" data-name="Rectángulo 401104" width="81.499" height="82.481" fill="none"/>
          </g>
          <g id="Outline" transform="translate(-0.328 0.452)">
            <path id="Trazado_1039378" data-name="Trazado 1039378" d="M73.13,18.984a1.3,1.3,0,1,0-2.143,1.467,36.438,36.438,0,0,1,3.091,5.52L61.97,30.941a6.393,6.393,0,0,0-3.192-2.556,6.446,6.446,0,0,0,1.665-4.3V18.888a6.493,6.493,0,1,0-12.986,0v5.194a6.446,6.446,0,0,0,1.675,4.313,6.484,6.484,0,0,0-4.272,6.076v3.491l-2.6,1.065V4.637A36.446,36.446,0,0,1,67.88,16.514,1.3,1.3,0,0,0,69.8,14.766,38.959,38.959,0,0,0,8.8,62.945a1.3,1.3,0,0,0,2.143-1.462A36.119,36.119,0,0,1,4.65,42.263H40.425L45.36,47.2a1.3,1.3,0,0,0,1.836-1.84l-3.932-3.932,31.8-13.051a36.216,36.216,0,0,1-1.818,29.3,6.493,6.493,0,0,0-4.583-4.758A5.144,5.144,0,0,0,69.4,51.2a5.219,5.219,0,0,0,3.93-4.114,5.178,5.178,0,0,0-3.792-8.718,4.981,4.981,0,0,0-1.518.235,5.254,5.254,0,0,0-5.768-1.084,3.883,3.883,0,0,0-5.532,2.316,3.882,3.882,0,0,0-2.235,5.676A3.885,3.885,0,0,0,58.3,51.326a5.178,5.178,0,0,0,1.279.8,5.359,5.359,0,0,0,.419.779,6.48,6.48,0,0,0-3.208,2.058L50.868,49.04a1.3,1.3,0,1,0-1.836,1.836L65.723,67.56a36.232,36.232,0,0,1-20.864,9.554V59.145a11.688,11.688,0,1,0-23.375,0V71.657a36.323,36.323,0,0,1-7.437-6.242,1.3,1.3,0,1,0-1.922,1.748A38.959,38.959,0,0,0,73.13,18.984ZM39.664,4.635v35.03h-3.9v-1.3A6.484,6.484,0,0,0,31.5,32.291a6.446,6.446,0,0,0,1.675-4.313V22.784a6.5,6.5,0,0,0-6.493-6.493H21.484a1.3,1.3,0,0,0-1.3,1.3v5.194a1.3,1.3,0,0,0,1.3,1.3h9.09v3.9a3.9,3.9,0,0,1-7.792,0,1.3,1.3,0,1,0-2.6,0,6.446,6.446,0,0,0,1.675,4.313,6.484,6.484,0,0,0-4.272,6.076v1.3H4.634a36.4,36.4,0,0,1,35.03-35.03ZM24.081,34.471h5.194a3.9,3.9,0,0,1,3.9,3.9v1.3H20.185v-1.3A3.9,3.9,0,0,1,24.081,34.471Zm6.271-12.986h-7.57v-2.6h3.9A3.9,3.9,0,0,1,30.352,21.485Zm19.7-1.3h7.792v3.9a3.9,3.9,0,1,1-7.792,0Zm3.9-5.194a3.9,3.9,0,0,1,3.674,2.6H50.276a3.9,3.9,0,0,1,3.674-2.6ZM47.456,34.471a3.9,3.9,0,0,1,3.9-3.9h5.194A3.85,3.85,0,0,1,59.5,31.952L47.456,36.9ZM61.741,50.055V48.531a3.921,3.921,0,0,0,1.613-1.092,3.193,3.193,0,0,0,1.879-.378,3.846,3.846,0,0,0,1.7.4v2.6a2.6,2.6,0,1,1-5.194,0ZM58.283,48.67a1.276,1.276,0,0,1-.438.086,1.3,1.3,0,0,1-1.3-1.3,1.265,1.265,0,0,1,.448-.966,1.3,1.3,0,0,0,0-1.96,1.291,1.291,0,0,1,.851-2.269,1.3,1.3,0,0,0,1.3-1.3,1.3,1.3,0,0,1,1.3-1.3,1.282,1.282,0,0,1,.862.34,1.3,1.3,0,0,0,1.6.108,2.617,2.617,0,0,1,3.621.766,1.3,1.3,0,0,0,1.738.435,2.553,2.553,0,0,1,1.269-.351,2.6,2.6,0,0,1,2.6,2.6,2.564,2.564,0,0,1-.89,1.938,1.3,1.3,0,0,0-.436.869A2.58,2.58,0,0,1,69.533,48.4V45.8a1.3,1.3,0,0,0-1.948-1.123,1.344,1.344,0,0,1-1.525-.168,1.266,1.266,0,0,0-.964-.345,1.3,1.3,0,0,0-.909.46.626.626,0,0,1-.779.158,1.3,1.3,0,0,0-1.778.614,1.3,1.3,0,0,1-1.188.76,1.3,1.3,0,0,0-1.3,1.3v1.217a1.273,1.273,0,0,0-.861,0Zm3.458,6.579h5.194a3.9,3.9,0,0,1,3.9,3.9v2.522a36.7,36.7,0,0,1-3.273,4.057l-8.915-8.916a3.875,3.875,0,0,1,3.1-1.558Zm-28.57-5.194a9.1,9.1,0,0,1,9.09,9.09V67.08a9.09,9.09,0,0,0-4.184-2.431,6.436,6.436,0,0,0,1.587-4.2v-2.6a1.3,1.3,0,0,0-1.3-1.3h-.222a7.518,7.518,0,0,1-5.353-2.217,1.3,1.3,0,0,0-.918-.38,5.194,5.194,0,0,0-5.194,5.194v1.3a6.436,6.436,0,0,0,1.587,4.2,9.09,9.09,0,0,0-4.184,2.431V59.145a9.1,9.1,0,0,1,9.09-9.09Zm-3.9,10.389v-1.3A2.6,2.6,0,0,1,31.4,56.591a10.076,10.076,0,0,0,5.665,2.5v1.354a3.9,3.9,0,0,1-7.792,0ZM24.108,73.17a6.493,6.493,0,0,1,6.466-6.233h5.194a6.5,6.5,0,0,1,6.493,6.493v3.863c-.432.014-.864.032-1.3.032A36.4,36.4,0,0,1,24.108,73.17Z" transform="translate(0 0)"/>
          </g>
        </g>
      </g>
    </g>
  </g>
</svg>
