<svg xmlns="http://www.w3.org/2000/svg" width="160" height="160" viewBox="0 0 160 160">
  <g id="Grupo_1190665" data-name="Grupo 1190665" transform="translate(-1089.676 -8398.59)">
    <rect id="Rectángulo_460221" data-name="Rectángulo 460221" width="160" height="160" transform="translate(1089.676 8398.59)" fill="#fff"/>
    <g id="Grupo_1189187" data-name="Grupo 1189187" transform="translate(1093.788 8403.068)">
      <path id="Trazado_1034768" data-name="Trazado 1034768" d="M51.808,0V4.722H57.67V6.669H49.99L49.969,0h-9.3V4.722h5.862V6.669h-7.68L38.832,0H37.061V0H29.536V4.722H35.4V6.669H27.719L27.695,0H25.923V1.19h.555L26.5,7.858H36.614V3.533h-5.86V1.19h6.862l.021,6.668H47.753V3.533H41.891V1.19h6.86l.021,6.668H58.89V3.533H53.027V1.19h6.312L59.333,0Z" transform="translate(5.537 0)" fill="#ada899"/>
      <path id="Trazado_1034769" data-name="Trazado 1034769" d="M123.885,0V4.722h5.862V6.669h-7.682L122.044,0h-9.3V4.722h5.862V6.669h-7.68L110.9,0h-9.295V4.722h5.863V6.669h-7.68L99.77,0H90.475V4.722h5.862V6.669H88.656L88.633,0H86.863V0H79.338V4.722H85.2V6.669H77.52L77.5,0H68.2V4.722h5.86V6.669H66.38L66.36,0H57.065V4.722h5.862V6.669h-7.68L55.224,0H53.458V1.19h.555l.019,6.668H64.15V3.533H58.288V1.19h6.856l.021,6.668H75.281V3.533H69.42V1.19H76.28L76.3,7.858H86.417V3.533H80.555V1.19h6.863l.021,6.668H97.555V3.533H91.692V1.19h6.86l.021,6.668h10.118V3.533h-5.862V1.19h6.86l.021,6.668h10.122V3.533h-5.862V1.19h6.851l.021,6.668H130.96V3.533H125.1V1.19h6.311V1.184h7.36V8.671h-2V2.957h-4.845v7.334h1.221V4.148h2.405V9.861h4.436V0Z" transform="translate(11.418 0)" fill="#ada899"/>
      <path id="Trazado_1034770" data-name="Trazado 1034770" d="M143.347,8.7V10.43l6.841.021v7.478h-2V12.224h-4.845v7.333h0v1.725l6.841.021v7.481h-2V23.079h-4.845v9.06l6.841.021v7.478h-2V33.934h-4.845v9.06l6.841.021v7.479h-2V44.789h-4.845v7.333h0v1.725l6.841.021v7.481h-2V55.644h-4.845V64.7l6.841.021V72.2h-2V66.5h-4.845v9.06l6.841.021V83.06h-2V77.353h-4.845v9.06l6.841.021v7.481h-2V88.21h-4.845v7.331h0v1.725l6.841.022v7.478h-2V99.063h-4.845v9.06l6.841.021v7.481h-2v-5.705h-4.845v9.06l6.841.021v7.478h-2v-5.7h-4.845v7.331h0v1.725l6.841.021v7.479h-2v-5.705h-4.845v9.06l6.841.021v7.481h-2v-5.705h-4.845v6.144h-1.856l-.021-6.669H131.354v4.326h5.86v2.343h-6.86l-.021-6.669H120.217v4.326h5.862v2.343h-6.862l-.019-6.669H109.08v4.326h5.862v2.343h-6.86l-.021-6.669H97.944v4.326H103.8v2.343H96.944l-.019-6.669H86.807v4.326H92.67v2.343H85.808l-.021-6.669H75.671v4.326h5.86v2.343h-6.86l-.021-6.669H64.534v4.326h5.859v2.343H63.534l-.019-6.669H53.4v4.326h5.862v2.343H52.4l-.021-6.669H42.261v4.326h5.86v2.343H41.263l-.022-6.669H31.126v4.326h5.86v2.343h-6.86l-.021-6.669H19.989v4.326H25.85v2.343H18.989l-.021-6.669H8.852v4.326h5.86v2.343H8.062v-6.144H3.218v5.705h-2v-7.481l6.841-.021v-9.06H3.218v5.705h-2v-7.479l6.841-.021v-1.725h0v-7.331H3.218v5.7h-2V119l6.841-.021v-9.06H3.218v5.705h-2v-7.481l6.841-.021v-9.06H3.218v5.705h-2V97.29l6.841-.022V88.209H3.218v5.7h-2V86.434l6.841-.022V84.689h0V77.353H3.218V83.06h-2V75.579l6.841-.021V66.5H3.218V72.2h-2V64.725L8.062,64.7v-9.06H3.218v5.705h-2V53.869l6.841-.021V52.123h0V44.789H3.218v5.705h-2V43.014l6.841-.021v-9.06H3.218v5.705h-2V32.16l6.841-.021v-9.06H3.218v5.705h-2V21.3l6.841-.021V19.558h0V12.224H3.218v5.705h-2V10.451l6.841-.021V8.7H6.841v.541L0,9.263v9.86H4.438V13.413h2.4V20.1L0,20.119v9.859H4.438V24.266h2.4v6.687L0,30.973v9.862H4.438V35.121h2.4v6.687L0,41.828v9.86H4.438V45.978h2.4v6.686L0,52.683v9.86H4.438V56.831h2.4v6.687L0,63.537V73.4H4.438V67.687h2.4v6.686L0,74.394v9.859H4.438V78.541h2.4v6.687L0,85.248v9.86H4.438V89.4h2.4v6.687L0,96.1v9.86H4.438v-5.711h2.4v6.687L0,106.959v9.859H4.438v-5.712h2.4v6.688L0,117.813v9.862H4.438v-5.713h2.4v6.686L0,128.667v9.861H4.438v-5.711h2.4V139.5L0,139.523v9.859H4.438V143.67h2.4v6.151l1.221,0h7.866v-4.723H10.077v-1.946h7.675l.021,6.669h9.295v-4.723H21.214v-1.946h7.673l.021,6.669H38.2v-4.723H32.35v-1.946h7.675l.022,6.669H49.34v-4.723H43.487v-1.946h7.673l.021,6.669h9.3v-4.723H54.624v-1.946H62.3l.022,6.669h9.294v-4.723H65.76v-1.946h7.673l.022,6.669H82.75v-4.723H76.9v-1.946h7.673l.021,6.669h9.295v-4.723H88.033v-1.946h7.675l.022,6.669h9.294v-4.723H99.17v-1.946h7.673l.022,6.669h9.295v-4.723h-5.853v-1.946h7.674l.022,6.669H127.3v-4.723h-5.853v-1.946h7.673l.022,6.669h9.295v-4.723h-5.859v-1.946h7.68l.021,6.669h3.073l1.22,0V143.67h2.405v5.712h4.437v-9.859l-6.842-.02v-6.687h2.405v5.711h4.437v-9.861l-6.842-.02v-6.686h2.405v5.713h4.437v-9.862l-6.842-.019v-6.688h2.405v5.712h4.437v-9.859l-6.842-.02v-6.687h2.405v5.711h4.437V96.1l-6.842-.02V89.4h2.405V95.11h4.437v-9.86l-6.842-.02V78.541h2.405v5.712h4.437V74.394l-6.842-.021V67.687h2.405V73.4h4.437v-9.86l-6.842-.02V56.831h2.405v5.713h4.437v-9.86l-6.842-.02V45.978h2.405v5.711h4.437v-9.86l-6.842-.02V35.121h2.405v5.713h4.437V30.973l-6.842-.02V24.266h2.405v5.712h4.437V20.119l-6.842-.02V13.413h2.405v5.711h4.437V9.263l-6.842-.02V8.7Z" transform="translate(0 1.592)" fill="#ada899"/>
      <path id="Trazado_1034771" data-name="Trazado 1034771" d="M23.935,0V4.722H29.8V6.669H22.116L22.1,0H20.324V0H12.8V4.722h5.86V6.669H10.98L10.957,0H0V9.861H4.437V4.148h2.4v6.143h1.22V2.957H3.218V8.671h-2V1.184H9.186V1.19h.556l.021,6.668H19.878V3.533H14.016V1.19h6.863L20.9,7.858H31.016V3.533H25.15V1.19h6.309V0Z" transform="translate(0 0)" fill="#ada899"/>
    </g>
    <g id="Grupo_1189188" data-name="Grupo 1189188" transform="translate(1119.69 8427.683)">
      <g id="Grupo_1188569" data-name="Grupo 1188569" transform="translate(0 0)">
        <g id="Grupo_1099776" data-name="Grupo 1099776" transform="translate(0)">
          <g id="Grupo_1099618" data-name="Grupo 1099618">
            <rect id="Rectángulo_401104" data-name="Rectángulo 401104" width="100.306" height="101.514" fill="none"/>
          </g>
          <g id="disputa" transform="translate(-0.804 -4.058)">
            <path id="Trazado_1039636" data-name="Trazado 1039636" d="M359.615,44.655a2.291,2.291,0,0,1-1.476-.54l-5.161-4.356h-13.4a1.458,1.458,0,1,1,0-2.917h13.6a2.382,2.382,0,0,1,1.538.563l4.273,3.606V39.224a2.385,2.385,0,0,1,2.382-2.382h4.12a.388.388,0,0,0,.389-.387V9.554a.388.388,0,0,0-.389-.387H349.406a1.458,1.458,0,1,1,0-2.917h16.081a3.308,3.308,0,0,1,3.306,3.3v26.9a3.308,3.308,0,0,1-3.306,3.3H361.9v2.61A2.289,2.289,0,0,1,359.615,44.655Z" transform="translate(-272.371 0)"/>
            <path id="Trazado_1039637" data-name="Trazado 1039637" d="M287.928,31.107a1.458,1.458,0,0,1-1.458-1.458V9.554a3.309,3.309,0,0,1,3.306-3.3h11.218a1.458,1.458,0,0,1,0,2.917H289.776a.388.388,0,0,0-.389.387V29.649A1.458,1.458,0,0,1,287.928,31.107Z" transform="translate(-230.765 0)"/>
            <path id="Trazado_1039638" data-name="Trazado 1039638" d="M25.318,139.492a2.289,2.289,0,0,1-2.287-2.287V134.6H19.446a3.308,3.308,0,0,1-3.306-3.3v-5.853a1.458,1.458,0,0,1,2.917,0v5.853a.388.388,0,0,0,.389.387h4.12a2.385,2.385,0,0,1,2.382,2.382v1.787l4.275-3.608a2.38,2.38,0,0,1,1.536-.562H45.487a1.458,1.458,0,1,1,0,2.917H31.955l-5.161,4.356A2.291,2.291,0,0,1,25.318,139.492Z" transform="translate(-13.002 -94.837)"/>
            <path id="Trazado_1039639" data-name="Trazado 1039639" d="M55.4,31.107a1.458,1.458,0,0,1-1.458-1.458V9.554a.388.388,0,0,0-.389-.387H19.446a.388.388,0,0,0-.389.387V23.8a1.458,1.458,0,0,1-2.917,0V9.554a3.308,3.308,0,0,1,3.306-3.3H53.551a3.308,3.308,0,0,1,3.306,3.3V29.649A1.458,1.458,0,0,1,55.4,31.107Z" transform="translate(-13.002 0)"/>
            <path id="Línea_3252" data-name="Línea 3252" d="M-6.042,3.258A1.458,1.458,0,0,1-7.5,1.8V-6.042A1.458,1.458,0,0,1-6.042-7.5,1.458,1.458,0,0,1-4.583-6.042V1.8A1.458,1.458,0,0,1-6.042,3.258Z" transform="translate(82.105 21.996)"/>
            <path id="Línea_3253" data-name="Línea 3253" transform="translate(76.064 29.501)"/>
            <path id="Línea_3254" data-name="Línea 3254" d="M-6.042,3.258A1.458,1.458,0,0,1-7.5,1.8V-6.042A1.458,1.458,0,0,1-6.042-7.5,1.458,1.458,0,0,1-4.583-6.042V1.8A1.458,1.458,0,0,1-6.042,3.258Z" transform="translate(76.259 21.996)"/>
            <path id="Línea_3255" data-name="Línea 3255" transform="translate(70.218 29.501)"/>
            <path id="Línea_3256" data-name="Línea 3256" d="M-6.042,3.258A1.458,1.458,0,0,1-7.5,1.8V-6.042A1.458,1.458,0,0,1-6.042-7.5,1.458,1.458,0,0,1-4.583-6.042V1.8A1.458,1.458,0,0,1-6.042,3.258Z" transform="translate(87.951 21.996)"/>
            <path id="Línea_3257" data-name="Línea 3257" transform="translate(81.91 29.501)"/>
            <path id="Línea_3258" data-name="Línea 3258" d="M-6.042,3.258A1.458,1.458,0,0,1-7.5,1.8V-6.042A1.458,1.458,0,0,1-6.042-7.5,1.458,1.458,0,0,1-4.583-6.042V1.8A1.458,1.458,0,0,1-6.042,3.258Z" transform="translate(29.538 21.996)"/>
            <path id="Línea_3259" data-name="Línea 3259" transform="translate(23.497 29.501)"/>
            <path id="Línea_3260" data-name="Línea 3260" d="M-6.042,3.258A1.458,1.458,0,0,1-7.5,1.8V-6.042A1.458,1.458,0,0,1-6.042-7.5,1.458,1.458,0,0,1-4.583-6.042V1.8A1.458,1.458,0,0,1-6.042,3.258Z" transform="translate(23.692 21.996)"/>
            <path id="Línea_3261" data-name="Línea 3261" transform="translate(17.651 29.501)"/>
            <path id="Línea_3262" data-name="Línea 3262" d="M-6.042,3.258A1.458,1.458,0,0,1-7.5,1.8V-6.042A1.458,1.458,0,0,1-6.042-7.5,1.458,1.458,0,0,1-4.583-6.042V1.8A1.458,1.458,0,0,1-6.042,3.258Z" transform="translate(35.384 21.996)"/>
            <path id="Línea_3263" data-name="Línea 3263" transform="translate(29.343 29.501)"/>
            <path id="Línea_3264" data-name="Línea 3264" d="M-6.042,10.274A1.458,1.458,0,0,1-7.5,8.815V-6.042A1.458,1.458,0,0,1-6.042-7.5,1.458,1.458,0,0,1-4.583-6.042V8.815A1.458,1.458,0,0,1-6.042,10.274Z" transform="translate(44.552 69.944)"/>
            <path id="Línea_3265" data-name="Línea 3265" d="M-1-4.583H-6.042A1.458,1.458,0,0,1-7.5-6.042,1.458,1.458,0,0,1-6.042-7.5H-1A1.458,1.458,0,0,1,.459-6.042,1.458,1.458,0,0,1-1-4.583Z" transform="translate(30.315 90.128)"/>
            <path id="Trazado_1039640" data-name="Trazado 1039640" d="M8.07,297.6A2.171,2.171,0,0,1,5.9,295.434v-2.026H3.039A3.043,3.043,0,0,1,0,290.368V267.329a3.043,3.043,0,0,1,3.039-3.039H36.017a1.458,1.458,0,1,1,0,2.917H3.039l-.123,23.161,3.652.122a2.252,2.252,0,0,1,2.25,2.25v1.081l3.318-2.8a2.245,2.245,0,0,1,1.45-.531h3.881a1.458,1.458,0,0,1,0,2.917H13.831l-4.364,3.683A2.167,2.167,0,0,1,8.07,297.6Z" transform="translate(0 -207.863)"/>
            <path id="Línea_3266" data-name="Línea 3266" d="M-6.042,9.974A1.458,1.458,0,0,1-7.5,8.516V-6.042A1.458,1.458,0,0,1-6.042-7.5,1.458,1.458,0,0,1-4.583-6.042V8.516A1.458,1.458,0,0,1-6.042,9.974Z" transform="translate(67.092 70.029)"/>
            <path id="Trazado_1039641" data-name="Trazado 1039641" d="M348.966,297.6a2.171,2.171,0,0,1-1.4-.512l-4.361-3.682H328a1.458,1.458,0,0,1,0-2.917H343.45a2.252,2.252,0,0,1,1.451.531l3.317,2.8v-1.081a2.251,2.251,0,0,1,2.249-2.249H354l.123-23.163-33.032-.123a1.458,1.458,0,0,1,0-2.917H354a3.043,3.043,0,0,1,3.04,3.039v23.04a3.043,3.043,0,0,1-3.04,3.04h-2.862v2.025A2.171,2.171,0,0,1,348.966,297.6Z" transform="translate(-257.475 -207.86)"/>
            <path id="Trazado_1039642" data-name="Trazado 1039642" d="M317.909,242.018a1.458,1.458,0,0,1-.96-2.557,15.79,15.79,0,0,0,4.3-6.012,1.458,1.458,0,0,1,2.711,1.076,18.719,18.719,0,0,1-5.1,7.133A1.453,1.453,0,0,1,317.909,242.018Z" transform="translate(-254.915 -182.277)"/>
            <path id="Trazado_1039643" data-name="Trazado 1039643" d="M157.846,146.051a1.453,1.453,0,0,1-.96-.361,17.856,17.856,0,0,1-6.326-13.543c0-10.337,9.2-18.747,20.5-18.747,10.956,0,19.951,7.831,20.478,17.829a1.458,1.458,0,0,1-2.913.153c-.445-8.448-8.16-15.065-17.565-15.065-9.7,0-17.586,7.1-17.586,15.831a14.979,14.979,0,0,0,5.33,11.347,1.458,1.458,0,0,1-.961,2.556Z" transform="translate(-121.283 -86.314)"/>
            <path id="Trazado_1039644" data-name="Trazado 1039644" d="M298.07,359.669a1.458,1.458,0,0,1-1.458-1.458V345.94a7.733,7.733,0,0,0-4.793-7.169l-9-3.721a3.406,3.406,0,0,1-2.111-3.157v-6.03a1.458,1.458,0,0,1,2.917,0v6.03a.5.5,0,0,0,.309.461l9,3.721a10.641,10.641,0,0,1,6.6,9.864v12.271A1.458,1.458,0,0,1,298.07,359.669Z" transform="translate(-226.124 -256.289)"/>
            <path id="Trazado_1039645" data-name="Trazado 1039645" d="M135.968,359.668a1.458,1.458,0,0,1-1.458-1.458V345.939a10.642,10.642,0,0,1,6.6-9.864l9-3.721a.5.5,0,0,0,.309-.461v-6.03a1.458,1.458,0,0,1,2.917,0v6.03a3.406,3.406,0,0,1-2.111,3.157l-9,3.721a7.734,7.734,0,0,0-4.793,7.169V358.21A1.458,1.458,0,0,1,135.968,359.668Z" transform="translate(-108.354 -256.289)"/>
            <path id="Trazado_1039646" data-name="Trazado 1039646" d="M195.214,282.441a10.041,10.041,0,0,1-4.018-.836A18.1,18.1,0,0,1,180.562,268a1.458,1.458,0,1,1,2.876-.487,15.191,15.191,0,0,0,8.926,11.419,7.143,7.143,0,0,0,5.7,0,15.19,15.19,0,0,0,8.926-11.414,1.458,1.458,0,0,1,2.876.488,18.1,18.1,0,0,1-10.634,13.6A10.043,10.043,0,0,1,195.214,282.441Z" transform="translate(-145.434 -209.481)"/>
            <path id="Trazado_1039647" data-name="Trazado 1039647" d="M241.427,293.075a1.452,1.452,0,0,1-.721-.192,4.037,4.037,0,0,0-3.983,0,1.458,1.458,0,1,1-1.445-2.534,6.966,6.966,0,0,1,6.874,0,1.459,1.459,0,0,1-.724,2.725Z" transform="translate(-188.933 -228.124)"/>
            <path id="Trazado_1039648" data-name="Trazado 1039648" d="M166.176,411.16a1.458,1.458,0,0,1-1.458-1.458V398.169a10.883,10.883,0,0,0-2.889-7.4,1.458,1.458,0,1,1,2.145-1.977,13.791,13.791,0,0,1,3.661,9.373V409.7A1.458,1.458,0,0,1,166.176,411.16Z" transform="translate(-130.05 -307.78)"/>
            <path id="Trazado_1039649" data-name="Trazado 1039649" d="M320.173,411.159a1.458,1.458,0,0,1-1.458-1.458V398.169a13.791,13.791,0,0,1,3.661-9.373,1.458,1.458,0,1,1,2.145,1.977,10.883,10.883,0,0,0-2.889,7.4V409.7A1.458,1.458,0,0,1,320.173,411.159Z" transform="translate(-256.74 -307.78)"/>
            <path id="Trazado_1039650" data-name="Trazado 1039650" d="M208.431,211.933a1.459,1.459,0,0,1-1.406-1.075l-3.4-12.483-.948.6a13.932,13.932,0,0,1-14.913,0l-.948-.6-3.4,12.478a1.458,1.458,0,0,1-2.814-.767l3.575-13.113a2.432,2.432,0,0,1,3.653-1.412l1.5.957a11,11,0,0,0,11.78,0l1.5-.957a2.432,2.432,0,0,1,3.652,1.411l3.576,13.119a1.46,1.46,0,0,1-1.408,1.842Z" transform="translate(-145.437 -152.192)"/>
            <path id="Trazado_1039651" data-name="Trazado 1039651" d="M219.5,372.078a10.257,10.257,0,0,1-8.565-4.581,1.458,1.458,0,0,1,2.428-1.617,7.351,7.351,0,0,0,6.19,3.281,7.259,7.259,0,0,0,6.145-3.372,1.458,1.458,0,0,1,2.45,1.582,10.262,10.262,0,0,1-8.575,4.706Z" transform="translate(-169.723 -289.087)"/>
            <path id="Línea_3267" data-name="Línea 3267" d="M-6.042,3.258A1.458,1.458,0,0,1-7.5,1.8V-6.042A1.458,1.458,0,0,1-6.042-7.5,1.458,1.458,0,0,1-4.583-6.042V1.8A1.458,1.458,0,0,1-6.042,3.258Z" transform="translate(85.52 70.383)"/>
            <path id="Línea_3268" data-name="Línea 3268" transform="translate(79.479 77.889)"/>
            <path id="Línea_3269" data-name="Línea 3269" d="M-6.042,3.258A1.458,1.458,0,0,1-7.5,1.8V-6.042A1.458,1.458,0,0,1-6.042-7.5,1.458,1.458,0,0,1-4.583-6.042V1.8A1.458,1.458,0,0,1-6.042,3.258Z" transform="translate(79.674 70.383)"/>
            <path id="Línea_3270" data-name="Línea 3270" transform="translate(73.633 77.889)"/>
            <path id="Línea_3271" data-name="Línea 3271" d="M-6.042,3.258A1.458,1.458,0,0,1-7.5,1.8V-6.042A1.458,1.458,0,0,1-6.042-7.5,1.458,1.458,0,0,1-4.583-6.042V1.8A1.458,1.458,0,0,1-6.042,3.258Z" transform="translate(91.366 70.383)"/>
            <path id="Línea_3272" data-name="Línea 3272" transform="translate(85.325 77.889)"/>
            <path id="Línea_3273" data-name="Línea 3273" d="M-6.042,3.258A1.458,1.458,0,0,1-7.5,1.8V-6.042A1.458,1.458,0,0,1-6.042-7.5,1.458,1.458,0,0,1-4.583-6.042V1.8A1.458,1.458,0,0,1-6.042,3.258Z" transform="translate(26.026 70.383)"/>
            <path id="Línea_3274" data-name="Línea 3274" transform="translate(19.984 77.889)"/>
            <path id="Línea_3275" data-name="Línea 3275" d="M-6.042,3.258A1.458,1.458,0,0,1-7.5,1.8V-6.042A1.458,1.458,0,0,1-6.042-7.5,1.458,1.458,0,0,1-4.583-6.042V1.8A1.458,1.458,0,0,1-6.042,3.258Z" transform="translate(20.18 70.383)"/>
            <path id="Línea_3276" data-name="Línea 3276" transform="translate(14.138 77.889)"/>
            <path id="Línea_3277" data-name="Línea 3277" d="M-6.042,3.258A1.458,1.458,0,0,1-7.5,1.8V-6.042A1.458,1.458,0,0,1-6.042-7.5,1.458,1.458,0,0,1-4.583-6.042V1.8A1.458,1.458,0,0,1-6.042,3.258Z" transform="translate(31.872 70.383)"/>
            <path id="Línea_3278" data-name="Línea 3278" transform="translate(25.83 77.889)"/>
          </g>
        </g>
      </g>
    </g>
  </g>
</svg>
